<svg width="192" height="192" xmlns="http://www.w3.org/2000/svg">
  <rect width="6" height="6" rx="0" fill="#c9297d" x="108" y="12"/>
  <rect width="6" height="6" rx="0" fill="#c9297d" x="150" y="12"/>
  <rect width="6" height="6" rx="0" fill="#c9297d" x="6" y="18"/>
  <rect width="6" height="6" rx="0" fill="#c9297d" x="102" y="18"/>
  <rect width="6" height="6" rx="0" fill="#c9297d" x="108" y="18"/>
  <rect width="6" height="6" rx="0" fill="#c9297d" x="144" y="18"/>
  <rect width="6" height="6" rx="0" fill="#c9297d" x="150" y="18"/>
  <rect width="6" height="6" rx="0" fill="#c9297d" x="6" y="24"/>
  <rect width="6" height="6" rx="0" fill="#c9297d" x="96" y="24"/>
  <rect width="6" height="6" rx="0" fill="#c9297d" x="102" y="24"/>
  <rect width="6" height="6" rx="0" fill="#c9297d" x="138" y="24"/>
  <rect width="6" height="6" rx="0" fill="#c9297d" x="144" y="24"/>
  <rect width="6" height="6" rx="0" fill="#c9297d" x="150" y="24"/>
  <rect width="6" height="6" rx="0" fill="#c9297d" x="6" y="30"/>
  <rect width="6" height="6" rx="0" fill="#c9297d" x="12" y="30"/>
  <rect width="6" height="6" rx="0" fill="#c9297d" x="96" y="30"/>
  <rect width="6" height="6" rx="0" fill="#c9297d" x="132" y="30"/>
  <rect width="6" height="6" rx="0" fill="#c9297d" x="138" y="30"/>
  <rect width="6" height="6" rx="0" fill="#c9297d" x="144" y="30"/>
  <rect width="6" height="6" rx="0" fill="#c9297d" x="12" y="36"/>
  <rect width="6" height="6" rx="0" fill="#c9297d" x="90" y="36"/>
  <rect width="6" height="6" rx="0" fill="#c9297d" x="96" y="36"/>
  <rect width="6" height="6" rx="0" fill="#c9297d" x="126" y="36"/>
  <rect width="6" height="6" rx="0" fill="#c9297d" x="132" y="36"/>
  <rect width="6" height="6" rx="0" fill="#c9297d" x="138" y="36"/>
  <rect width="6" height="6" rx="0" fill="#c9297d" x="144" y="36"/>
  <rect width="6" height="6" rx="0" fill="#c9297d" x="12" y="42"/>
  <rect width="6" height="6" rx="0" fill="#c9297d" x="90" y="42"/>
  <rect width="6" height="6" rx="0" fill="#c9297d" x="126" y="42"/>
  <rect width="6" height="6" rx="0" fill="#c9297d" x="132" y="42"/>
  <rect width="6" height="6" rx="0" fill="#c9297d" x="138" y="42"/>
  <rect width="6" height="6" rx="0" fill="#c9297d" x="12" y="48"/>
  <rect width="6" height="6" rx="0" fill="#c9297d" x="18" y="48"/>
  <rect width="6" height="6" rx="0" fill="#c9297d" x="84" y="48"/>
  <rect width="6" height="6" rx="0" fill="#c9297d" x="90" y="48"/>
  <rect width="6" height="6" rx="0" fill="#c9297d" x="120" y="48"/>
  <rect width="6" height="6" rx="0" fill="#c9297d" x="126" y="48"/>
  <rect width="6" height="6" rx="0" fill="#c9297d" x="138" y="48"/>
  <rect width="6" height="6" rx="0" fill="#c9297d" x="18" y="54"/>
  <rect width="6" height="6" rx="0" fill="#c9297d" x="84" y="54"/>
  <rect width="6" height="6" rx="0" fill="#c9297d" x="114" y="54"/>
  <rect width="6" height="6" rx="0" fill="#c9297d" x="120" y="54"/>
  <rect width="6" height="6" rx="0" fill="#c9297d" x="138" y="54"/>
  <rect width="6" height="6" rx="0" fill="#c9297d" x="18" y="60"/>
  <rect width="6" height="6" rx="0" fill="#c9297d" x="84" y="60"/>
  <rect width="6" height="6" rx="0" fill="#c9297d" x="108" y="60"/>
  <rect width="6" height="6" rx="0" fill="#c9297d" x="114" y="60"/>
  <rect width="6" height="6" rx="0" fill="#c9297d" x="138" y="60"/>
  <rect width="6" height="6" rx="0" fill="#c9297d" x="18" y="66"/>
  <rect width="6" height="6" rx="0" fill="#c9297d" x="78" y="66"/>
  <rect width="6" height="6" rx="0" fill="#c9297d" x="84" y="66"/>
  <rect width="6" height="6" rx="0" fill="#c9297d" x="108" y="66"/>
  <rect width="6" height="6" rx="0" fill="#c9297d" x="138" y="66"/>
  <rect width="6" height="6" rx="0" fill="#c9297d" x="18" y="72"/>
  <rect width="6" height="6" rx="0" fill="#c9297d" x="78" y="72"/>
  <rect width="6" height="6" rx="0" fill="#c9297d" x="102" y="72"/>
  <rect width="6" height="6" rx="0" fill="#c9297d" x="108" y="72"/>
  <rect width="6" height="6" rx="0" fill="#c9297d" x="138" y="72"/>
  <rect width="6" height="6" rx="0" fill="#c9297d" x="18" y="78"/>
  <rect width="6" height="6" rx="0" fill="#c9297d" x="24" y="78"/>
  <rect width="6" height="6" rx="0" fill="#c9297d" x="78" y="78"/>
  <rect width="6" height="6" rx="0" fill="#c9297d" x="96" y="78"/>
  <rect width="6" height="6" rx="0" fill="#c9297d" x="102" y="78"/>
  <rect width="6" height="6" rx="0" fill="#c9297d" x="138" y="78"/>
  <rect width="6" height="6" rx="0" fill="#c9297d" x="24" y="84"/>
  <rect width="6" height="6" rx="0" fill="#c9297d" x="78" y="84"/>
  <rect width="6" height="6" rx="0" fill="#c9297d" x="96" y="84"/>
  <rect width="6" height="6" rx="0" fill="#c9297d" x="138" y="84"/>
  <rect width="6" height="6" rx="0" fill="#c9297d" x="24" y="90"/>
  <rect width="6" height="6" rx="0" fill="#c9297d" x="72" y="90"/>
  <rect width="6" height="6" rx="0" fill="#c9297d" x="78" y="90"/>
  <rect width="6" height="6" rx="0" fill="#c9297d" x="90" y="90"/>
  <rect width="6" height="6" rx="0" fill="#c9297d" x="96" y="90"/>
  <rect width="6" height="6" rx="0" fill="#c9297d" x="138" y="90"/>
  <rect width="6" height="6" rx="0" fill="#c9297d" x="24" y="96"/>
  <rect width="6" height="6" rx="0" fill="#c9297d" x="72" y="96"/>
  <rect width="6" height="6" rx="0" fill="#c9297d" x="90" y="96"/>
  <rect width="6" height="6" rx="0" fill="#c9297d" x="138" y="96"/>
  <rect width="6" height="6" rx="0" fill="#c9297d" x="24" y="102"/>
  <rect width="6" height="6" rx="0" fill="#c9297d" x="30" y="102"/>
  <rect width="6" height="6" rx="0" fill="#c9297d" x="72" y="102"/>
  <rect width="6" height="6" rx="0" fill="#c9297d" x="90" y="102"/>
  <rect width="6" height="6" rx="0" fill="#c9297d" x="138" y="102"/>
  <rect width="6" height="6" rx="0" fill="#c9297d" x="30" y="108"/>
  <rect width="6" height="6" rx="0" fill="#c9297d" x="72" y="108"/>
  <rect width="6" height="6" rx="0" fill="#c9297d" x="84" y="108"/>
  <rect width="6" height="6" rx="0" fill="#c9297d" x="138" y="108"/>
  <rect width="6" height="6" rx="0" fill="#c9297d" x="30" y="114"/>
  <rect width="6" height="6" rx="0" fill="#c9297d" x="66" y="114"/>
  <rect width="6" height="6" rx="0" fill="#c9297d" x="78" y="114"/>
  <rect width="6" height="6" rx="0" fill="#c9297d" x="84" y="114"/>
  <rect width="6" height="6" rx="0" fill="#c9297d" x="138" y="114"/>
  <rect width="6" height="6" rx="0" fill="#c9297d" x="30" y="120"/>
  <rect width="6" height="6" rx="0" fill="#c9297d" x="66" y="120"/>
  <rect width="6" height="6" rx="0" fill="#c9297d" x="78" y="120"/>
  <rect width="6" height="6" rx="0" fill="#c9297d" x="84" y="120"/>
  <rect width="6" height="6" rx="0" fill="#c9297d" x="90" y="120"/>
  <rect width="6" height="6" rx="0" fill="#c9297d" x="96" y="120"/>
  <rect width="6" height="6" rx="0" fill="#c9297d" x="102" y="120"/>
  <rect width="6" height="6" rx="0" fill="#c9297d" x="108" y="120"/>
  <rect width="6" height="6" rx="0" fill="#c9297d" x="114" y="120"/>
  <rect width="6" height="6" rx="0" fill="#c9297d" x="120" y="120"/>
  <rect width="6" height="6" rx="0" fill="#c9297d" x="126" y="120"/>
  <rect width="6" height="6" rx="0" fill="#c9297d" x="132" y="120"/>
  <rect width="6" height="6" rx="0" fill="#c9297d" x="138" y="120"/>
  <rect width="6" height="6" rx="0" fill="#c9297d" x="144" y="120"/>
  <rect width="6" height="6" rx="0" fill="#c9297d" x="150" y="120"/>
  <rect width="6" height="6" rx="0" fill="#c9297d" x="156" y="120"/>
  <rect width="6" height="6" rx="0" fill="#c9297d" x="162" y="120"/>
  <rect width="6" height="6" rx="0" fill="#c9297d" x="168" y="120"/>
  <rect width="6" height="6" rx="0" fill="#c9297d" x="174" y="120"/>
  <rect width="6" height="6" rx="0" fill="#c9297d" x="30" y="126"/>
  <rect width="6" height="6" rx="0" fill="#c9297d" x="60" y="126"/>
  <rect width="6" height="6" rx="0" fill="#c9297d" x="66" y="126"/>
  <rect width="6" height="6" rx="0" fill="#c9297d" x="132" y="126"/>
  <rect width="6" height="6" rx="0" fill="#c9297d" x="36" y="132"/>
  <rect width="6" height="6" rx="0" fill="#c9297d" x="60" y="132"/>
  <rect width="6" height="6" rx="0" fill="#c9297d" x="126" y="132"/>
  <rect width="6" height="6" rx="0" fill="#c9297d" x="132" y="132"/>
  <rect width="6" height="6" rx="0" fill="#c9297d" x="36" y="138"/>
  <rect width="6" height="6" rx="0" fill="#c9297d" x="54" y="138"/>
  <rect width="6" height="6" rx="0" fill="#c9297d" x="60" y="138"/>
  <rect width="6" height="6" rx="0" fill="#c9297d" x="126" y="138"/>
  <rect width="6" height="6" rx="0" fill="#c9297d" x="36" y="144"/>
  <rect width="6" height="6" rx="0" fill="#c9297d" x="54" y="144"/>
  <rect width="6" height="6" rx="0" fill="#c9297d" x="126" y="144"/>
  <rect width="6" height="6" rx="0" fill="#c9297d" x="36" y="150"/>
  <rect width="6" height="6" rx="0" fill="#c9297d" x="54" y="150"/>
  <rect width="6" height="6" rx="0" fill="#c9297d" x="126" y="150"/>
  <rect width="6" height="6" rx="0" fill="#c9297d" x="36" y="156"/>
  <rect width="6" height="6" rx="0" fill="#c9297d" x="42" y="156"/>
  <rect width="6" height="6" rx="0" fill="#c9297d" x="48" y="156"/>
  <rect width="6" height="6" rx="0" fill="#c9297d" x="126" y="156"/>
  <rect width="6" height="6" rx="0" fill="#c9297d" x="42" y="162"/>
  <rect width="6" height="6" rx="0" fill="#c9297d" x="48" y="162"/>
  <rect width="6" height="6" rx="0" fill="#c9297d" x="126" y="162"/>
  <rect width="6" height="6" rx="0" fill="#c9297d" x="132" y="162"/>
  <rect width="6" height="6" rx="0" fill="#c9297d" x="42" y="168"/>
  <rect width="6" height="6" rx="0" fill="#c9297d" x="48" y="168"/>
  <rect width="6" height="6" rx="0" fill="#c9297d" x="132" y="168"/>
  <rect width="6" height="6" rx="0" fill="#c9297d" x="42" y="174"/>
  <rect width="6" height="6" rx="0" fill="#c9297d" x="132" y="174"/>
  <rect width="6" height="6" rx="0" fill="#c9297d" x="138" y="174"/>
</svg>