<svg xmlns="http://www.w3.org/2000/svg" viewBox="0 0 60 60" xml:space="preserve">
  <g fill="#000000">
    <path d="M60 60h-1.5c-.553 0-1-.447-1-1 0-.405.241-.755.588-.912.157-.347.507-.588.912-.588.553 0 1 .447 1 1V60zM54.636 60h-.966c-.553 0-1-.447-1-1s.447-1 1-1h.966c.553 0 1 .447 1 1s-.448 1-1 1zm-4.83 0h-.967c-.553 0-1-.447-1-1s.447-1 1-1h.967c.553 0 1 .447 1 1s-.448 1-1 1zm-4.831 0h-.966c-.553 0-1-.447-1-1s.447-1 1-1h.966c.553 0 1 .447 1 1s-.448 1-1 1zm-4.83 0h-.967c-.553 0-1-.447-1-1s.447-1 1-1h.967c.553 0 1 .447 1 1s-.448 1-1 1zm-4.832 0h-.966c-.553 0-1-.447-1-1s.447-1 1-1h.966c.553 0 1 .447 1 1s-.447 1-1 1zm-4.83 0h-.966c-.553 0-1-.447-1-1s.447-1 1-1h.966c.553 0 1 .447 1 1s-.447 1-1 1zm-4.831 0h-.966c-.553 0-1-.447-1-1s.447-1 1-1h.966c.553 0 1 .447 1 1s-.447 1-1 1zm-4.83 0h-.966c-.553 0-1-.447-1-1s.447-1 1-1h.966c.553 0 1 .447 1 1s-.447 1-1 1zm-4.831 0h-.966c-.553 0-1-.447-1-1s.447-1 1-1h.966c.553 0 1 .447 1 1s-.447 1-1 1zm-4.83 0h-.966c-.553 0-1-.447-1-1s.447-1 1-1h.966c.553 0 1 .447 1 1s-.447 1-1 1zm-4.83 0h-.967c-.553 0-1-.447-1-1s.447-1 1-1h.967c.553 0 1 .447 1 1s-.447 1-1 1zM1.5 60H0v-1.5c0-.553.447-1 1-1 .405 0 .755.241.912.588.347.157.588.507.588.912 0 .553-.447 1-1 1zM1 55.636c-.553 0-1-.447-1-1v-.966c0-.553.447-1 1-1s1 .447 1 1v.966c0 .552-.447 1-1 1zm0-4.83c-.553 0-1-.447-1-1v-.967c0-.553.447-1 1-1s1 .447 1 1v.967c0 .552-.447 1-1 1zm0-4.831c-.553 0-1-.447-1-1v-.966c0-.553.447-1 1-1s1 .447 1 1v.966c0 .552-.447 1-1 1zm0-4.83c-.553 0-1-.447-1-1v-.967c0-.553.447-1 1-1s1 .447 1 1v.967c0 .552-.447 1-1 1zm0-4.832c-.553 0-1-.447-1-1v-.966c0-.553.447-1 1-1s1 .447 1 1v.966c0 .553-.447 1-1 1zm0-4.83c-.553 0-1-.447-1-1v-.966c0-.553.447-1 1-1s1 .447 1 1v.966c0 .553-.447 1-1 1zm0-4.831c-.553 0-1-.447-1-1v-.966c0-.553.447-1 1-1s1 .447 1 1v.966c0 .553-.447 1-1 1zm0-4.83c-.553 0-1-.447-1-1v-.966c0-.553.447-1 1-1s1 .447 1 1v.966c0 .553-.447 1-1 1zm0-4.831c-.553 0-1-.447-1-1v-.966c0-.553.447-1 1-1s1 .447 1 1v.966c0 .553-.447 1-1 1zm0-4.83c-.553 0-1-.447-1-1v-.966c0-.553.447-1 1-1s1 .447 1 1v.966c0 .553-.447 1-1 1zm0-4.83c-.553 0-1-.447-1-1v-.967c0-.553.447-1 1-1s1 .447 1 1v.967c0 .553-.447 1-1 1zM1 2.5c-.553 0-1-.447-1-1V0h1.5c.553 0 1 .447 1 1 0 .405-.241.755-.588.912-.157.347-.507.588-.912.588zM54.636 2h-.967c-.553 0-1-.447-1-1s.447-1 1-1h.967c.553 0 1 .447 1 1s-.448 1-1 1zm-4.831 0h-.966c-.553 0-1-.447-1-1s.447-1 1-1h.966c.553 0 1 .447 1 1s-.448 1-1 1zm-4.83 0h-.966c-.553 0-1-.447-1-1s.447-1 1-1h.966c.553 0 1 .447 1 1s-.448 1-1 1zm-4.831 0h-.966c-.553 0-1-.447-1-1s.447-1 1-1h.966c.553 0 1 .447 1 1s-.448 1-1 1zm-4.831 0h-.966c-.553 0-1-.447-1-1s.447-1 1-1h.966c.553 0 1 .447 1 1s-.447 1-1 1zm-4.831 0h-.966c-.553 0-1-.447-1-1s.447-1 1-1h.966c.553 0 1 .447 1 1s-.447 1-1 1zm-4.83 0h-.966c-.553 0-1-.447-1-1s.447-1 1-1h.966c.553 0 1 .447 1 1s-.447 1-1 1zm-4.83 0h-.967c-.553 0-1-.447-1-1s.447-1 1-1h.967c.553 0 1 .447 1 1s-.447 1-1 1zm-4.831 0h-.966c-.553 0-1-.447-1-1s.447-1 1-1h.966c.553 0 1 .447 1 1s-.447 1-1 1zm-4.83 0h-.967c-.553 0-1-.447-1-1s.447-1 1-1h.967c.553 0 1 .447 1 1s-.447 1-1 1zM6.33 2h-.966c-.553 0-1-.447-1-1s.447-1 1-1h.966c.553 0 1 .447 1 1s-.447 1-1 1zM59 2.5c-.405 0-.755-.241-.912-.588-.347-.157-.588-.507-.588-.912 0-.553.447-1 1-1H60v1.5c0 .553-.447 1-1 1zM59 55.636c-.553 0-1-.447-1-1v-.967c0-.553.447-1 1-1s1 .447 1 1v.967c0 .552-.447 1-1 1zm0-4.831c-.553 0-1-.447-1-1v-.966c0-.553.447-1 1-1s1 .447 1 1v.966c0 .552-.447 1-1 1zm0-4.83c-.553 0-1-.447-1-1v-.966c0-.553.447-1 1-1s1 .447 1 1v.966c0 .552-.447 1-1 1zm0-4.831c-.553 0-1-.447-1-1v-.966c0-.553.447-1 1-1s1 .447 1 1v.966c0 .552-.447 1-1 1zm0-4.831c-.553 0-1-.447-1-1v-.966c0-.553.447-1 1-1s1 .447 1 1v.966c0 .553-.447 1-1 1zm0-4.831c-.553 0-1-.447-1-1v-.966c0-.553.447-1 1-1s1 .447 1 1v.966c0 .553-.447 1-1 1zm0-4.83c-.553 0-1-.447-1-1v-.966c0-.553.447-1 1-1s1 .447 1 1v.966c0 .553-.447 1-1 1zm0-4.83c-.553 0-1-.447-1-1v-.967c0-.553.447-1 1-1s1 .447 1 1v.967c0 .553-.447 1-1 1zm0-4.831c-.553 0-1-.447-1-1v-.966c0-.553.447-1 1-1s1 .447 1 1v.966c0 .553-.447 1-1 1zm0-4.83c-.553 0-1-.447-1-1v-.967c0-.553.447-1 1-1s1 .447 1 1v.967c0 .553-.447 1-1 1zm0-4.831c-.553 0-1-.447-1-1v-.966c0-.553.447-1 1-1s1 .447 1 1v.966c0 .553-.447 1-1 1z"/>
  </g>
</svg>