<svg xmlns="http://www.w3.org/2000/svg" viewBox="0 0 211.293 211.293" xml:space="preserve" style='fill: white'>
  <path d="M176.777 54.027H133.43c-4.143 0-7.5 3.357-7.5 7.5 0 4.142 3.357 7.5 7.5 7.5h35.848v127.266H42.016V69.027H77.86c4.143 0 7.5-3.357 7.5-7.5s-3.357-7.5-7.5-7.5H34.516c-4.142 0-7.5 3.357-7.5 7.5v142.266c0 4.143 3.358 7.5 7.5 7.5h142.262c4.143 0 7.5-3.357 7.5-7.5V61.527c-.001-4.142-3.358-7.5-7.501-7.5z"/>
  <path d="M82.058 101.468c-2.929-2.929-7.678-2.93-10.606-.001-2.93 2.93-2.93 7.678-.001 10.607l28.889 28.89c1.407 1.407 3.314 2.197 5.304 2.197 1.989 0 3.896-.79 5.303-2.196l28.891-28.89c2.93-2.929 2.93-7.678.001-10.606-2.929-2.929-7.678-2.93-10.606-.001l-16.088 16.087V7.5c0-4.143-3.357-7.5-7.5-7.5s-7.5 3.357-7.5 7.5v110.054l-16.087-16.086z"/>
</svg>