<svg xmlns="http://www.w3.org/2000/svg" viewBox="0 0 512.001 512.001" xml:space="preserve">
  <path d="M256 192.012c-35.313 0-64.002 28.688-64.002 64s28.689 63.969 64.002 63.969 64-28.656 64-63.969-28.687-64-64-64z"/>
  <path d="M505.381 236.512c-56.082-72.938-125.065-140.438-249.225-140.5h-.032c0-.031-.094-.031-.125 0H255.842C131.684 96.075 62.7 163.575 6.62 236.512c-8.826 11.5-8.826 27.5 0 39 56.08 72.938 125.065 140.438 249.225 140.5h.659c.141-.031.281-.031.422 0 123.66-.336 192.486-67.719 248.459-140.5 8.822-11.5 8.822-27.5-.004-39zm-249.287 115.5h-.189c-52.879-.063-95.908-43.125-95.908-96s43.029-95.938 95.908-96h.188c52.877.063 95.906 43.125 95.906 96s-43.028 95.938-95.905 96z"/>
</svg>