<svg xmlns="http://www.w3.org/2000/svg" viewBox="0 0 211.293 211.293" xml:space="preserve" style='fill: white'>
  <path d="M176.777 54.027H133.43c-4.142 0-7.5 3.357-7.5 7.5 0 4.142 3.358 7.5 7.5 7.5h35.847v127.266H42.016V69.027H77.86c4.142 0 7.5-3.357 7.5-7.5s-3.358-7.5-7.5-7.5H34.516c-4.142 0-7.5 3.357-7.5 7.5v142.266c0 4.143 3.358 7.5 7.5 7.5h142.261c4.142 0 7.5-3.357 7.5-7.5V61.527c0-4.142-3.358-7.5-7.5-7.5z"/>
  <path d="m82.058 41.693 16.087-16.087V135.66c0 4.143 3.358 7.5 7.5 7.5 4.143 0 7.5-3.357 7.5-7.5V25.607l16.086 16.086c1.464 1.465 3.384 2.197 5.303 2.197s3.838-.733 5.303-2.196c2.929-2.93 2.929-7.678 0-10.607l-28.889-28.89C109.542.79 107.634 0 105.645 0c-1.988 0-3.896.79-5.303 2.196l-28.891 28.89c-2.929 2.929-2.929 7.678 0 10.606 2.929 2.93 7.678 2.929 10.607.001z"/>
</svg>